<?xml version="1.0" encoding="UTF-8"?>
<svg xmlns="http://www.w3.org/2000/svg" xmlns:xlink="http://www.w3.org/1999/xlink" width="165px" height="42px" viewBox="0 0 166 42" version="1.1">
<g id="surface1">
<path style=" stroke:none;fill-rule:nonzero;fill:rgb(63.137257%,0%,100%);fill-opacity:1;" d="M 96.035156 11.722656 L 105.179688 8.300781 L 96.035156 4.785156 L 96.035156 0 L 111.699219 6.347656 L 111.699219 10.253906 L 96.035156 16.605469 Z M 96.035156 11.722656 "/>
<path style=" stroke:none;fill-rule:nonzero;fill:rgb(100%,100%,100%);fill-opacity:1;" d="M 9.550781 42 C 6.242188 42 3.519531 40.339844 3.519531 36.628906 L 3.519531 36.433594 C 3.519531 31.941406 7.410156 30.375 12.175781 30.375 L 14.414062 30.375 L 14.414062 29.496094 C 14.414062 27.640625 13.636719 26.566406 11.691406 26.566406 C 9.941406 26.566406 9.0625 27.542969 8.96875 28.910156 L 4.101562 28.910156 C 4.492188 24.808594 7.703125 22.855469 11.984375 22.855469 C 16.359375 22.855469 19.570312 24.710938 19.570312 29.300781 L 19.570312 41.609375 L 14.609375 41.609375 L 14.609375 39.460938 C 13.636719 40.828125 11.984375 42 9.550781 42 Z M 14.414062 35.554688 L 14.414062 33.796875 L 12.371094 33.796875 C 9.84375 33.796875 8.578125 34.480469 8.578125 36.140625 L 8.578125 36.335938 C 8.578125 37.605469 9.355469 38.484375 11.105469 38.484375 C 12.859375 38.386719 14.414062 37.410156 14.414062 35.554688 Z M 31.148438 42 C 26.089844 42 22.390625 38.875 22.390625 32.625 L 22.390625 32.332031 C 22.390625 26.078125 26.285156 22.757812 31.148438 22.757812 C 35.332031 22.757812 38.734375 24.90625 39.125 29.691406 L 34.261719 29.691406 C 33.96875 27.933594 32.996094 26.761719 31.246094 26.761719 C 29.105469 26.761719 27.546875 28.519531 27.546875 32.136719 L 27.546875 32.722656 C 27.546875 36.433594 28.910156 38.09375 31.246094 38.09375 C 32.996094 38.09375 34.261719 36.824219 34.550781 34.773438 L 39.222656 34.773438 C 38.929688 39.070312 36.109375 42 31.148438 42 Z M 50.214844 42 C 45.15625 42 41.460938 38.875 41.460938 32.625 L 41.460938 32.332031 C 41.460938 26.078125 45.351562 22.757812 50.214844 22.757812 C 54.398438 22.757812 57.804688 24.90625 58.191406 29.691406 L 53.328125 29.691406 C 53.035156 27.933594 52.0625 26.761719 50.3125 26.761719 C 48.171875 26.761719 46.617188 28.519531 46.617188 32.136719 L 46.617188 32.722656 C 46.617188 36.433594 47.976562 38.09375 50.3125 38.09375 C 52.0625 38.09375 53.328125 36.824219 53.621094 34.773438 L 58.289062 34.773438 C 58 39.070312 55.175781 42 50.214844 42 Z M 69.378906 42 C 64.128906 42 60.527344 38.875 60.527344 32.722656 L 60.527344 32.332031 C 60.527344 26.175781 64.320312 22.757812 69.28125 22.757812 C 73.855469 22.757812 77.648438 25.296875 77.648438 31.449219 L 77.648438 33.699219 L 65.683594 33.699219 C 65.878906 37.019531 67.335938 38.289062 69.476562 38.289062 C 71.421875 38.289062 72.492188 37.214844 72.882812 35.945312 L 77.648438 35.945312 C 77.066406 39.363281 74.148438 42 69.378906 42 Z M 65.78125 30.277344 L 72.589844 30.277344 C 72.492188 27.542969 71.230469 26.371094 69.1875 26.371094 C 67.628906 26.46875 66.167969 27.347656 65.78125 30.277344 Z M 80.761719 23.246094 L 85.917969 23.246094 L 85.917969 25.980469 C 86.792969 24.222656 88.640625 22.855469 91.464844 22.855469 C 94.769531 22.855469 97.007812 24.90625 97.007812 29.300781 L 97.007812 41.609375 L 91.851562 41.609375 L 91.851562 30.082031 C 91.851562 27.933594 90.976562 26.957031 89.128906 26.957031 C 87.378906 26.957031 85.917969 28.03125 85.917969 30.375 L 85.917969 41.609375 L 80.761719 41.609375 Z M 106.445312 17.679688 L 106.445312 23.246094 L 109.949219 23.246094 L 109.949219 27.054688 L 106.445312 27.054688 L 106.445312 35.75 C 106.445312 37.117188 107.027344 37.800781 108.292969 37.800781 C 109.070312 37.800781 109.558594 37.703125 110.042969 37.507812 L 110.042969 41.511719 C 109.460938 41.707031 108.390625 41.902344 107.125 41.902344 C 103.136719 41.902344 101.289062 40.046875 101.289062 36.335938 L 101.289062 27.054688 L 99.148438 27.054688 L 99.148438 23.246094 L 101.289062 23.246094 L 101.289062 19.828125 Z M 129.210938 41.609375 L 124.152344 41.609375 L 124.152344 38.875 C 123.277344 40.632812 121.523438 42 118.800781 42 C 115.492188 42 113.0625 39.949219 113.0625 35.652344 L 113.0625 23.246094 L 118.214844 23.246094 L 118.214844 34.96875 C 118.214844 37.117188 119.09375 38.09375 120.84375 38.09375 C 122.59375 38.09375 124.054688 36.921875 124.054688 34.675781 L 124.054688 23.246094 L 129.210938 23.246094 Z M 133.003906 23.246094 L 138.160156 23.246094 L 138.160156 26.664062 C 139.230469 24.222656 140.980469 23.050781 143.703125 23.050781 L 143.703125 28.128906 C 140.203125 28.128906 138.160156 29.203125 138.160156 32.234375 L 138.160156 41.707031 L 133.003906 41.707031 Z M 154.113281 42 C 148.859375 42 145.261719 38.875 145.261719 32.722656 L 145.261719 32.332031 C 145.261719 26.175781 149.054688 22.757812 154.015625 22.757812 C 158.589844 22.757812 162.382812 25.296875 162.382812 31.449219 L 162.382812 33.699219 L 150.515625 33.699219 C 150.710938 37.019531 152.167969 38.289062 154.308594 38.289062 C 156.253906 38.289062 157.324219 37.214844 157.714844 35.945312 L 162.480469 35.945312 C 161.703125 39.363281 158.882812 42 154.113281 42 Z M 150.417969 30.277344 L 157.324219 30.277344 C 157.226562 27.542969 155.960938 26.371094 153.917969 26.371094 C 152.363281 26.46875 150.902344 27.347656 150.417969 30.277344 Z M 150.417969 30.277344 "/>
</g>
</svg>
